<?xml version="1.0" encoding="UTF-8"?>
<svg id="Layer_1" data-name="Layer 1" xmlns="http://www.w3.org/2000/svg" viewBox="0 0 2816.68 2805.11">
  <defs>
    <style>
      .cls-1 {
        fill: none;
        stroke-width: 28px;
      }

      .cls-1, .cls-2 {
        stroke: #fff;
        stroke-miterlimit: 10;
      }

      .cls-2 {
        fill: #fff;
      }
    </style>
  </defs>
  <path class="cls-2" d="M705.59,736.06c-10.73,2.84-21.46,5.69-34.06,9.03,3.01-8.76,5.4-15.69,7.78-22.63-.45-.22-.89-.45-1.34-.67-1.91,2.16-3.79,4.36-5.75,6.49-11.76,12.82-25.91,19.3-43.67,17.26-11.91-1.37-23.91-1.92-35.86-2.98-3.21-.28-6.38-1.06-11.64-1.97,19.8-23.92,41.92-41.9,67.98-54.96,26.19-13.13,54.17-17.82,85.82-15.86-3.24-3.61-4.91-5.73-6.83-7.58-28.21-27.08-49.87-58.4-59.15-96.78-13.09-54.13-7.88-106.79,18.04-156.32,17.97-34.34,47.35-57.1,81.85-73.61,1.12-.54,2.48-.58,5.17-1.16.91,40.82-7.84,78.26-28.16,113.2,8.39-5.62,13.23-14.17,19.9-23.46.38,3.57.95,5.64.76,7.64-2.89,29.95-14.56,55.85-35.91,77.24-2.82,2.83-5.6,5.7-8.38,8.58-.19.2-.13.64-.33,1.9,10.71-3.45,16.53-12.86,26.36-19.78-3.74,24.4-12.82,44.63-26.31,63.15.63.45,1.25.9,1.88,1.35,7.56-7.09,15.13-14.18,24.21-22.69,2.39,20.29-2.97,37.84-8.7,57.36,12.1-8.18,15.77-19.8,22.35-30.91,9.15,17.35,7.05,35.09,9.19,52.74,3.77-8.12,7.53-16.24,12.06-26.01,4.9,8.42,8.84,15.18,13.26,22.78,1.74-1.97,3.05-2.94,3.69-4.25,22.86-46.2,60.23-75.27,108.06-92.37,61.2-21.87,123.13-24.46,185.76-7.36,24.71,6.75,47.05,18.58,67.06,34.65,2.98,2.39,5.63,5.2,9.81,9.08-4.24.81-6.35,1.42-8.5,1.6-39.28,3.11-78.01,9.15-116.19,19.21-29.79,7.85-59.5,5.33-88.58-4.67-2.82-.97-5.66-1.91-8.53-2.73-.52-.15-1.22.33-3.19.95,16.17,10.5,33.4,17.35,50.29,28.03-22.41,9.42-44.62,11.06-67.12,11.87,12.84,7.73,27.38,4.79,42.41,6.05-1.56,2.95-2.33,4.99-3.58,6.67-14.65,19.81-34.24,29.12-58.87,26.93-8.26-.74-16.44-2.45-24.64-3.83-3.51-.59-6.98-1.46-12.76-2.69,10.3,11.56,22.06,15.78,35.48,19.79-13.81,15.02-30.71,18.81-49.04,19.32.12.83.24,1.66.36,2.48,3.43.56,6.83,1.32,10.28,1.63,7.3.66,14.67.72,21.92,1.7,14.76,2,25.38,13.27,26.97,28.01,1.45,13.43-6.63,27.26-19.55,31.58-5.16,1.73-11.08,1.47-16.67,1.57-3.24.06-6.5-.98-9.95-1.56,2.33,6.29,17.64,23.07,26.75,29.27,7.52-8.59,15.12-17.27,24.01-27.43.65,3.76,1.42,5.77,1.26,7.71-.76,9.29-1.68,18.58-2.7,27.84-1.24,11.24,2.13,17.61,12,22.86,3.16,1.68,5.66,1.39,8.05-1.14,3.11-3.29,6.23-6.56,9.35-9.84.73.28,1.47.57,2.2.85-.45,4.35-.54,8.77-1.43,13.03-1.33,6.4.54,10.87,6.2,14.29,11.69,7.07,23.35,14.21,34.7,21.82,6.49,4.35,12.09,3.81,18.47-.07,22.48-13.66,46.84-22.35,72.74-26.79,21.78-3.73,43.71-4.49,65.73-3.11,1.24.08,2.45.59,5.29,1.3-22.83,28.17-50.27,48.86-82.36,66.32,4.05,1.79,6.3,3.04,8.69,3.81,61.3,19.78,123.93,28.7,188.26,21.99,29.38-3.07,57.74-10.19,83.41-25.75,2.43-1.48,5.54-2.63,8.33-2.62,55.3.31,110.6.69,165.89,1.34,40.98.48,81.95,1.34,122.92,2.06,22.65.4,45.39-.24,67.91,1.67,15.45,1.31,30.94,5.06,45.81,9.67,65.66,20.38,124.01,53.87,173.67,101.46,41.9,40.16,70.88,88.86,89.84,143.6,10.51,30.35,17.51,61.53,21.29,93.39,4.26,35.96-.02,71.2-10.9,105.61-19.9,62.91-52.56,118.61-96.34,167.8-16.28,18.29-35.95,32.74-56.42,45.99-49.12,31.8-101.57,56.13-159.42,66.71-20.2,3.69-41.06,4.97-61.64,5.16-89.32.8-178.64,1.03-267.97.99-55.98-.02-111.97-.79-167.95-1.38-30.98-.33-61.96-.99-92.95-1.48-3.92-.06-7.85,0-13.21,0,0,5.04,0,8.93,0,12.83,0,52.99-.14,105.98.14,158.97.05,8.49-2.12,14.9-8,21.37-88.45,97.48-176.61,195.21-264.85,292.88-2.33,2.58-4.8,5.04-8.72,9.15v-742.35c3.83-.2,7.06-.52,10.29-.52,101-.03,201.99-.07,302.99,0,57.66.04,115.32.27,172.98.39,112.32.24,224.64.53,336.96.56,7.55,0,15.36-1.07,22.59-3.2,23.62-6.96,45.06-18.06,62.99-35.38,26.02-25.14,36.19-55.94,33.28-91.56-1.53-18.79-6.6-36.72-13.81-54.01-2.27-5.44-5.8-10.51-9.48-15.17-17.33-21.93-39.19-37.88-65.23-48.01-3.66-1.42-7.71-2.62-11.57-2.61-24.65.07-49.3.67-73.95.78-42.66.19-85.32.16-127.97.21-2.67,0-5.33-.05-8-.06-53.66-.14-107.32-.23-160.98-.44-19.66-.08-39.31-.62-58.97-.56-6.5.02-10.23-1.91-12.58-8.45-11.95-33.33-36.02-54.41-68.69-66.52-24.3-9.01-49.6-13.46-75.28-14.77-26.25-1.34-52.59-1.04-78.89-1.42-1.26-.02-2.52.4-3.5.56.32,9.93,2.3,19.74.45,28.77-1.85,9.08-7.51,17.38-11.96,27.02,10.56,10.42,22.01,21.98,27.85,39.29h-23.14c-.19.74-.38,1.47-.57,2.21,2.12.92,4.17,2.04,6.36,2.73,24.09,7.58,46.36,18.6,65.87,34.81,5.86,4.87,11.26,10.2,14.96,17.6-5.22,3.33-10.08-.99-14.7.58,15.28,9.44,30.97,18.23,45.67,28.45,14.76,10.26,26.89,23.46,38.04,38.99-2.65.96-4.06,1.9-5.5,1.94-48.01,1.42-95.17-3.01-140.7-19.67-43.5-15.92-73.93-46.47-96.77-85.59-6.72-11.5-12.82-23.37-19.31-35-1.53-2.74-3.48-5.25-5.97-7.51.35,11.63,4.91,22.85.21,35.36-8.48-9.41-15.45-19.27-28.72-25.06,2.88,9.7,5.53,17.71,7.6,25.87,2.12,8.38,3.99,16.86,5.38,25.39,1.38,8.48,2.03,17.08,3.16,27.03-7.05-3.55-8.22-9.93-11.98-14.1-3.92-4.33-7.4-9.05-14.09-11.05,4,9.61,7.99,19.21,11.99,28.82-.55.48-1.1.95-1.65,1.43-8.83-6.8-17.66-13.6-26.49-20.41-.67.61-1.34,1.22-2.01,1.83,22.5,21.43,37.04,47.16,42.6,78.55-8.21-5.32-16.42-10.63-24.63-15.95-.45.43-.91.85-1.36,1.28,4.82,5.38,9.84,10.61,14.42,16.2,4.85,5.92,9.49,12.05,13.84,18.35,4.35,6.3,8.36,12.85,12.28,19.43,3.86,6.51,7.42,13.2,11.71,20.89-2.85.4-4.37.97-5.76.75-37.12-5.68-70.57-19.24-98-45.73-18.51-17.88-28.43-39.86-31.96-65.11-5.36-38.4.22-74.38,22.8-106.79.87-1.24,1.31-2.79,2.54-5.49-12.5-1.15-23.88-2.2-36.53-3.36,3.31-8.78,11.1-13.25,15.53-22.56-3.97,2.57-6.3,4.08-8.64,5.59-9.24,5.92-18.25,12.28-27.81,17.62-7.24,4.04-15.24,6.44-25.18,3.4,5.06-7.6,9.75-14.65,15.92-23.93-4.29,1.71-6.53,2.37-8.55,3.45-11.86,6.31-24.1,11.57-37.76,12.07-8.58.32-17.2.17-26.04-5.53,19.44-33.59,44.33-60.12,81.75-72.58,37.21-12.39,73.43-5.78,110.6,8.83-1.35-5.17-1.9-7.98-2.83-10.67-8.32-24.15-12.8-48.98-12.97-74.52-.04-5.55-1.83-9.6-6.42-12.64-38.76-25.65-57.72-63.33-65.47-107.82-.33-1.9-.87-3.77-2.21-5.78-6.31,14.44-6.55,30.46-13.31,45.66-2.02-5.66-4.04-11.32-6.07-16.98-.57,0-1.14,0-1.7-.01-.07,2.63-.16,5.26-.22,7.89-.38,18.28-.64,36.57-1.22,54.85-.11,3.44-1.48,6.83-2.74,12.29-6.29-8.19-6.49-17.02-12.75-23.07,4.02,37.13,8.05,74.27,12.3,113.46-5.3-2.17-8.97-3.32-12.32-5.1-25.7-13.67-41.99-35.35-52.11-62.09-8.26-21.83-10.67-44.58-10.36-67.78.37-27.87,4.02-55.13,13.81-81.38,6.71-17.99,16.27-34.27,28.85-48.78,2.13-2.46,4.2-4.98,6.3-7.47l-1-1.83ZM1134.14,974.17c-2.3-1.51-3.07-2.15-3.94-2.57-26.06-12.58-52.17-25.08-78.18-37.77-4.73-2.31-8.04-.68-11.75,2.17-13.58,10.42-28.54,18.27-44.9,23.42-1.87.59-3.57,1.72-5.35,2.59.18.48.35.96.53,1.44,9.57-1.65,19.15-3.31,30.44-5.26-8.77,17.89-25.03,23.97-38.14,34.12,4.51-1.03,9.03-2.07,13.54-3.1.4.63.81,1.26,1.21,1.9-8.11,10.19-16.23,20.39-24.93,31.32,2.83-.68,4.64-1.13,6.73-1.63v8.34c9.77-3.97,18.94-6.87,27.34-11.24,36.88-19.16,75.73-32.51,116.41-40.74,3.11-.63,6.14-1.66,10.99-2.99ZM905.04,930.48c.57.55,1.14,1.1,1.7,1.65,26.41-10.17,46.58-27.74,61.94-52.61-9.3-7.93-17.94-15.75-28.45-22.94-12.12,25.47-23.66,49.69-35.19,73.91ZM857.37,766.93c-1.33,3.08-2.15,4.98-3.17,7.33-4.58-2.62-8.6-4.89-12.59-7.21-3.74-2.17-7.39-4.47-11.18-6.55-3.65-2.01-7.04-4.84-11.74-4.78,20.91,16.94,34.86,39.02,48.75,63.12,5.27-7.99,9.56-14.49,14.13-21.43-8.03-10.12-15.64-19.69-24.21-30.48ZM865.16,823.19c-9.32-5.27-17.38-9.83-25.45-14.39-.41.63-.83,1.26-1.24,1.9,7.02,6.43,14.05,12.87,21.64,19.83,1.77-2.58,2.98-4.33,5.04-7.33ZM851.19,728.02c.59-.14,1.19-.29,1.78-.43v-18.19c-4.51.53-8.52,1.01-14.2,1.68,4.84,6.61,8.63,11.78,12.42,16.95ZM915.67,833.27c-2-1.55-3.58-2.77-5.81-4.5-2.68,5.74-4.95,10.6-7.27,15.58,4.26-3.61,8.11-6.87,13.08-11.08Z"/>
  <path class="cls-2" d="M913.35,2169.17c3.01-3.77,4.48-5.82,6.16-7.69,96.11-106.68,192.24-213.35,288.38-320.01,40.15-44.55,80.39-89.01,120.37-133.72,4.61-5.16,9.28-7.36,16.25-7.34,98.98.21,197.95.14,296.93.16,3.19,0,6.38.34,12.02.66-83.26,92.02-165.04,182.4-248.47,274.6,12.03.33,21.52.75,31.01.83,35.32.3,70.63.49,105.95.73,70.3.47,140.6.9,210.91,1.42,65.3.49,130.6,1.04,195.9,1.66,29.65.28,59.29.75,88.94,1.18,1.95.03,3.89.36,7.03.67-1.67,2.53-2.63,4.49-4.04,6.04-52.21,57.44-104.5,114.81-156.62,172.33-4.35,4.8-8.79,7.06-15.47,7.05-49.98-.08-99.96.34-149.95.4-201.95.23-403.89.36-605.84.58-62.32.07-124.63.3-186.95.45-3.52,0-7.03,0-12.49,0Z"/>
  <path class="cls-2" d="M1641.32,1346.22c33.98-39.72,67.96-79.45,101.73-118.93,1.5.59,2.46.68,2.58,1.05,9.13,29.24,8.1,57.27-11.88,82.07-16.5,20.48-38.96,31.98-64.16,37.62-8.52,1.91-17.83.3-26.79.3-.49-.7-.99-1.41-1.48-2.11Z"/>
  <path class="cls-2" d="M2130.68,1150.1c-17.89,19.79-35.78,39.58-55.01,60.86-5.14-21.87-9.85-41.89-14.79-62.93,23.6-.55,46.23-.3,68.87-.23.31.77.63,1.54.94,2.3Z"/>
  <path class="cls-1" d="M1257.26,512.93c44.48-6.16,89.91-9.34,136.08-9.34,543.23,0,983.6,440.37,983.6,983.6s-440.37,983.6-983.6,983.6-983.6-440.37-983.6-983.6c0-202.72,61.33-391.11,166.44-547.65"/>
</svg>